<svg xmlns="http://www.w3.org/2000/svg" width="22.408" height="25.127" viewBox="0 0 22.408 25.127">
  <g id="Grupo_30" data-name="Grupo 30" transform="translate(-169.621 -495.757)">
    <path id="Trazado_1" data-name="Trazado 1" d="M180.819,520.632c-2.266,0-4.532.008-6.8,0A4.108,4.108,0,0,1,170,517.5a4.709,4.709,0,0,1-.125-1.13q-.014-5.289-.005-10.577a5.6,5.6,0,0,1,2.652-4.868c1.743-1.2,3.428-2.481,5.116-3.758a5.24,5.24,0,0,1,2.736-1.142,4.512,4.512,0,0,1,3.153.805c1.8,1.3,3.572,2.642,5.373,3.943a7.455,7.455,0,0,1,1.777,1.561,5.614,5.614,0,0,1,1.1,3.408c0,3.557.008,7.115,0,10.671a4.084,4.084,0,0,1-3.309,4.12,5.022,5.022,0,0,1-1.009.09C185.244,520.636,183.031,520.632,180.819,520.632Zm.015-1.04h.7c2.1-.007,4.194.024,6.291-.03a3,3,0,0,0,2.916-3.073q.01-5.446,0-10.895a4.378,4.378,0,0,0-.5-2.009,5.415,5.415,0,0,0-1.828-1.9c-1.851-1.323-3.67-2.691-5.506-4.034a2.579,2.579,0,0,0-.607-.337,3.768,3.768,0,0,0-3.754.474c-1.929,1.412-3.864,2.817-5.785,4.24a4.315,4.315,0,0,0-1.851,3.612c-.008,3.6-.012,7.2.01,10.8a3.312,3.312,0,0,0,.286,1.346,3.026,3.026,0,0,0,2.988,1.8C176.407,519.586,178.621,519.592,180.834,519.592Z" transform="translate(0 0)" fill="#28abe1" stroke="#28abe1" stroke-width="0.5"/>
    <path id="Trazado_2" data-name="Trazado 2" d="M179.1,510.9q1.745,0,3.492,0a2.112,2.112,0,0,1,.348.022.5.5,0,0,1,.071.969,1.489,1.489,0,0,1-.4.047q-3.542,0-7.081,0a1.437,1.437,0,0,1-.4-.049.5.5,0,0,1,.076-.968,2.112,2.112,0,0,1,.348-.022Q177.322,510.9,179.1,510.9Z" transform="translate(1.758 5.327)" fill="#28abe1" stroke="#28abe1" stroke-width="0.5"/>
  </g>
</svg>
